HIERARCHY
ROOT Hips
{
	OFFSET 0.000000 0.000000 0.000000 
	CHANNELS 6 Xposition Yposition Zposition Zrotation Xrotation Yrotation
	JOINT Spine
	{
		OFFSET -0.000000 8.061080 0.000000 
		CHANNELS 3 Zrotation Xrotation Yrotation
		JOINT Spine1
		{
			OFFSET -0.000000 20.532700 0.000000 
			CHANNELS 3 Zrotation Xrotation Yrotation
			JOINT Neck
			{
				OFFSET -0.000000 22.498800 0.000000 
				CHANNELS 3 Zrotation Xrotation Yrotation
				JOINT Head
				{
					OFFSET -0.000000 15.237400 1.966120 
					CHANNELS 3 Zrotation Xrotation Yrotation
					End Site
					{
						OFFSET -0.000000 19.661222 0.000000 
					}
				}
			}
			JOINT LeftShoulder
			{
				OFFSET 3.894670 16.042299 -0.398189 
				CHANNELS 3 Zrotation Xrotation Yrotation
				JOINT LeftArm
				{
					OFFSET 19.709600 0.000000 0.000000 
					CHANNELS 3 Zrotation Xrotation Yrotation
					JOINT LeftForeArm
					{
						OFFSET 25.566900 0.000000 0.000000 
						CHANNELS 3 Zrotation Xrotation Yrotation
						JOINT LeftHand
						{
							OFFSET 25.401899 0.000000 0.000000 
							CHANNELS 3 Zrotation Xrotation Yrotation
							End Site
							{
								OFFSET 14.745918 0.000000 0.000000 
							}
						}
					}
				}
			}
			JOINT RightShoulder
			{
				OFFSET -3.930780 16.042299 -0.398189 
				CHANNELS 3 Zrotation Xrotation Yrotation
				JOINT RightArm
				{
					OFFSET -19.709600 0.000000 0.000000 
					CHANNELS 3 Zrotation Xrotation Yrotation
					JOINT RightForeArm
					{
						OFFSET -25.566900 0.000000 0.000000 
						CHANNELS 3 Zrotation Xrotation Yrotation
						JOINT RightHand
						{
							OFFSET -25.401899 0.000000 0.000000 
							CHANNELS 3 Zrotation Xrotation Yrotation
							End Site
							{
								OFFSET -14.745918 0.000000 0.000000 
							}
						}
					}
				}
			}
		}
	}
	JOINT LeftUpLeg
	{
		OFFSET 9.830590 0.000000 0.000000 
		CHANNELS 3 Zrotation Xrotation Yrotation
		JOINT LeftLeg
		{
			OFFSET -0.000000 -46.474800 0.000000 
			CHANNELS 3 Zrotation Xrotation Yrotation
			JOINT LeftFoot
			{
				OFFSET -0.000000 -30.290499 0.000000 
				CHANNELS 3 Zrotation Xrotation Yrotation
				JOINT LeftToeBase
				{
					OFFSET -0.000000 -6.389880 14.745900 
					CHANNELS 3 Zrotation Xrotation Yrotation
					End Site
					{
						OFFSET -0.000000 0.000000 3.932244 
					}
				}
			}
		}
	}
	JOINT RightUpLeg
	{
		OFFSET -9.830590 0.000000 0.000000 
		CHANNELS 3 Zrotation Xrotation Yrotation
		JOINT RightLeg
		{
			OFFSET -0.000000 -46.474800 0.000000 
			CHANNELS 3 Zrotation Xrotation Yrotation
			JOINT RightFoot
			{
				OFFSET -0.000000 -30.290499 0.000000 
				CHANNELS 3 Zrotation Xrotation Yrotation
				JOINT RightToeBase
				{
					OFFSET -0.000000 -6.389880 14.745900 
					CHANNELS 3 Zrotation Xrotation Yrotation
					End Site
					{
						OFFSET -0.000000 0.000000 3.932244 
					}
				}
			}
		}
	}
}
MOTION
Frames: 9
Frame Time: 0.010000
0.000000 83.416405 0.000000 -1.145430 9.477118 10.821557 -0.660694 -14.031631 -1.680329 2.469262 3.426482 -0.610030 1.479960 1.748586 4.332903 1.894751 13.339669 4.236607 5.996918 8.473760 -6.377295 -68.795212 31.358154 -26.302691 -9.357308 -6.738150 -0.537200 1.113333 -6.733758 4.943828 -9.770207 9.434048 -8.163320 43.992981 57.801819 49.387779 4.626338 -13.634254 5.931390 5.369046 -13.519267 7.622089 4.007098 -5.539705 -1.346941 2.417846 -4.147586 -8.787266 5.398299 -0.795475 5.570505 -0.000002 -5.799999 -0.000010 -3.830052 -5.653996 -4.400614 8.744148 2.584141 -28.711803 -1.501046 -10.200720 26.008507 0.000000 0.000000 0.000000 
0.004015 83.416138 -0.001778 -1.143721 9.471127 10.816607 -0.661137 -14.030704 -1.677435 2.468158 3.425951 -0.608989 1.477301 1.742885 4.324631 1.905513 13.317019 4.225360 6.002198 8.501018 -6.363183 -68.792091 31.383251 -26.379105 -9.372913 -6.726339 -0.601130 1.132480 -6.726653 4.919120 -9.769829 9.438210 -8.166220 43.998219 57.792110 49.386677 4.629733 -13.626856 5.927591 5.375186 -13.511787 7.615206 4.005657 -5.537933 -1.351004 2.414947 -4.138497 -8.785788 5.399292 -0.800843 5.570336 -0.000002 -5.799999 -0.000010 -3.833243 -5.653289 -4.396342 8.751542 2.596409 -28.724800 -1.501046 -10.200720 26.008507 0.000000 0.000000 0.000000 
0.008035 83.415878 -0.003551 -1.141957 9.464969 10.811643 -0.661624 -14.029522 -1.674631 2.467082 3.425335 -0.607921 1.474645 1.737110 4.316362 1.916245 13.294572 4.214124 6.007399 8.528202 -6.349094 -68.788803 31.408419 -26.455587 -9.388449 -6.714388 -0.665191 1.151644 -6.719431 4.894744 -9.769464 9.442434 -8.169129 44.003365 57.782352 49.385689 4.633190 -13.619392 5.923884 5.381345 -13.504288 7.608260 4.004286 -5.535915 -1.355262 2.411922 -4.129749 -8.784745 5.400433 -0.805602 5.570457 -0.000002 -5.799999 -0.000010 -3.836396 -5.652462 -4.392253 8.758700 2.608845 -28.737625 -1.501046 -10.200720 26.008507 0.000000 0.000000 0.000000 
0.012038 83.415627 -0.005386 -1.140225 9.458992 10.806636 -0.662108 -14.028392 -1.671774 2.465948 3.424601 -0.606924 1.472061 1.731454 4.308065 1.926950 13.271966 4.202879 6.012624 8.555252 -6.335071 -68.785309 31.433762 -26.532255 -9.403943 -6.702251 -0.729367 1.170954 -6.712057 4.870882 -9.769031 9.446709 -8.172036 44.008217 57.772648 49.385033 4.636633 -13.611965 5.920132 5.387666 -13.496777 7.601362 4.002865 -5.534174 -1.359363 2.409035 -4.120930 -8.784028 5.401601 -0.810189 5.570644 -0.000002 -5.799999 -0.000010 -3.839534 -5.651822 -4.388159 8.765739 2.621043 -28.750271 -1.501046 -10.200720 26.008507 0.000000 0.000000 0.000000 
0.016026 83.415375 -0.007278 -1.138493 9.453039 10.801565 -0.662651 -14.027089 -1.668965 2.464894 3.423661 -0.605996 1.469395 1.725842 4.299782 1.937716 13.249409 4.191628 6.017765 8.582041 -6.321028 -68.781509 31.459484 -26.609198 -9.419414 -6.689926 -0.793586 1.190273 -6.704494 4.847690 -9.768688 9.450813 -8.174791 44.013103 57.763298 49.384296 4.639967 -13.604594 5.916400 5.394137 -13.489309 7.594519 4.001487 -5.532485 -1.363537 2.406019 -4.112127 -8.783145 5.402875 -0.814744 5.570956 -0.000002 -5.799999 -0.000010 -3.842697 -5.651180 -4.384001 8.772709 2.633006 -28.762486 -1.501046 -10.200720 26.008507 0.000000 0.000000 0.000000 
0.020004 83.415131 -0.009190 -1.136694 9.446904 10.796409 -0.663249 -14.025467 -1.666292 2.463795 3.422593 -0.605024 1.466819 1.720378 4.291461 1.948420 13.226822 4.180364 6.022855 8.608541 -6.307038 -68.777290 31.485332 -26.686319 -9.435169 -6.677194 -0.858234 1.209914 -6.696593 4.825633 -9.768306 9.454919 -8.177528 44.017632 57.754147 49.383919 4.643339 -13.597198 5.912698 5.400803 -13.481838 7.587666 4.000101 -5.530614 -1.367798 2.403006 -4.103181 -8.782053 5.404124 -0.819503 5.571189 -0.000002 -5.799999 -0.000010 -3.845873 -5.650361 -4.379886 8.779459 2.644898 -28.774210 -1.501046 -10.200720 26.008507 0.000000 0.000000 0.000000 
0.023799 83.415054 -0.012417 -1.135000 9.441621 10.789228 -0.664257 -14.021124 -1.665029 2.462685 3.418001 -0.604394 1.464517 1.716368 4.283575 1.958806 13.207944 4.169636 6.026438 8.627494 -6.295630 -68.768433 31.515512 -26.761452 -9.453571 -6.658126 -0.915401 1.233549 -6.681713 4.792302 -9.767624 9.457612 -8.177993 44.019680 57.749344 49.385220 4.646118 -13.590531 5.909690 5.410595 -13.474820 7.581570 3.998596 -5.530780 -1.369892 2.400387 -4.092592 -8.780466 5.405162 -0.824677 5.571112 -0.000002 -5.799999 -0.000010 -3.848865 -5.650406 -4.373120 8.783065 2.652280 -28.777519 -1.501046 -10.200720 26.008507 0.000000 0.000000 0.000000 
0.027595 83.414970 -0.015640 -1.133307 9.436305 10.782032 -0.665244 -14.016726 -1.663761 2.461539 3.413396 -0.603761 1.462327 1.712503 4.275678 1.969038 13.188833 4.158964 6.030079 8.646285 -6.284314 -68.759552 31.545664 -26.836437 -9.471852 -6.638623 -0.973433 1.257445 -6.666476 4.762528 -9.766931 9.460312 -8.178488 44.021690 57.744568 49.386620 4.648840 -13.583851 5.906671 5.420403 -13.467809 7.575377 3.997375 -5.530540 -1.372176 2.395857 -4.084718 -8.779430 5.407820 -0.825456 5.573737 -0.000002 -5.799999 -0.000010 -3.851897 -5.650422 -4.366487 8.786751 2.659575 -28.780846 -1.501046 -10.200720 26.008507 0.000000 0.000000 0.000000 
0.031401 83.414902 -0.018860 -1.131556 9.430839 10.774804 -0.666273 -14.012157 -1.662497 2.460421 3.408746 -0.603180 1.460062 1.708597 4.267811 1.979369 13.170030 4.148287 6.033671 8.665022 -6.272992 -68.750458 31.575743 -26.911383 -9.490140 -6.618573 -1.032389 1.281629 -6.650722 4.736820 -9.766252 9.462969 -8.178868 44.023842 57.739941 49.387852 4.651508 -13.577223 5.903656 5.430240 -13.460843 7.569265 3.996082 -5.530105 -1.374622 2.391331 -4.076900 -8.778010 5.410502 -0.826166 5.576401 -0.000002 -5.799999 -0.000010 -3.854873 -5.650273 -4.360281 8.790144 2.667006 -28.783869 -1.501046 -10.200720 26.008507 0.000000 0.000000 0.000000 
